#!OML:ASF X:\für Bonn\!DataBase\2005_08_12_Daniel\c3d\Daniel.ASF
:FULLY-SPECIFIED
:DEGREES
127
root 2.6187 17.6348 17.5016 -5.27585 14.4241 0.660869
lowerback 7.26752 2.59394 2.85878
upperback 0.471431 3.50234 -6.30574
thorax -3.0151 1.69363 -8.59852
lowerneck 2.25762 -5.48423 -0.616705
upperneck 14.4018 -7.79822 3.90465
head 4.58209 -3.68855 1.1676
rclavicle -1.93691e-014 1.11319e-014
rhumerus 60.2276 -6.27896 -68.4935
rradius 15.7024
rwrist 33.78
rhand 8.72569 4.84755
rfingers 7.12502
rthumb 33.9167 -21.9547
lclavicle -1.93691e-014 1.11319e-014
lhumerus -38.2421 44.3798 56.4178
lradius 15.5601
lwrist -45.0292
lhand -10.975 -5.97831
lfingers 7.12502
lthumb 15.0445 23.4551
rfemur 5.89157 15.4434 20.8848
rtibia 18.5232
rfoot -26.7897 -24.9158
rtoes -9.85864
lfemur -1.42541 -17.7808 -19.4403
ltibia 27.8818
lfoot -20.9059 4.70792
ltoes -15.647
128
root 2.61724 17.6344 17.5051 -5.27261 14.405 0.647963
lowerback 7.18526 2.58375 2.81804
upperback 0.504578 3.48736 -6.28058
thorax -2.94091 1.6901 -8.53863
lowerneck 2.24062 -5.44863 -0.527208
upperneck 14.6225 -7.74841 3.81254
head 4.65624 -3.65847 1.12066
rclavicle -5.95546e-014 2.54444e-014
rhumerus 60.0421 -5.85347 -67.588
rradius 16.0445
rwrist 32.9295
rhand 8.59943 4.8755
rfingers 7.12502
rthumb 33.7968 -21.9531
lclavicle -5.95546e-014 2.54444e-014
lhumerus -38.6067 44.9565 55.8651
lradius 15.4301
lwrist -45.725
lhand -10.9567 -5.96646
lfingers 7.12502
lthumb 15.0623 23.4656
rfemur 5.91932 15.5406 20.9363
rtibia 18.4941
rfoot -26.8307 -24.9894
rtoes -9.83286
lfemur -1.41231 -17.7827 -19.4208
ltibia 27.8757
lfoot -20.9075 4.72359
ltoes -15.6342
129
root 2.6156 17.6347 17.5081 -5.24139 14.3788 0.649765
lowerback 7.10528 2.57826 2.76546
upperback 0.502995 3.47636 -6.25888
thorax -2.90412 1.68639 -8.47787
lowerneck 2.27374 -5.41866 -0.467264
upperneck 14.8742 -7.70668 3.72801
head 4.73484 -3.6336 1.08222
rclavicle -4.77642e-014 5.88403e-014
rhumerus 59.785 -5.38994 -66.6081
rradius 16.4195
rwrist 31.9464
rhand 8.38725 4.93674
rfingers 7.12502
rthumb 33.5951 -21.936
lclavicle -4.77642e-014 5.88403e-014
lhumerus -39.1218 45.6266 55.1532
lradius 15.2902
lwrist -46.5555
lhand -10.9711 -5.98969
lfingers 7.12502
lthumb 15.0484 23.4434
rfemur 5.91816 15.6932 20.98
rtibia 18.4751
rfoot -26.904 -25.1058
rtoes -9.81138
lfemur -1.42645 -17.7566 -19.3975
ltibia 27.8623
lfoot -20.9185 4.70482
ltoes -15.585
130
root 2.61366 17.6343 17.5109 -5.23721 14.3325 0.63808
lowerback 7.05995 2.57295 2.73861
upperback 0.507498 3.46762 -6.24522
thorax -2.87794 1.68329 -8.44325
lowerneck 2.27339 -5.38259 -0.383903
upperneck 15.1487 -7.65889 3.64786
head 4.82795 -3.60341 1.04024
rclavicle 5.31004e-014 -4.77083e-015
rhumerus 59.4931 -4.83165 -65.4056
rradius 16.8414
rwrist 30.6483
rhand 8.1203 4.95716
rfingers 7.12502
rthumb 33.3414 -21.9704
lclavicle 5.31004e-014 -4.77083e-015
lhumerus -39.536 46.1061 54.5686
lradius 15.1705
lwrist -47.1756
lhand -11.0036 -5.97036
lfingers 7.12502
lthumb 15.0171 23.4651
rfemur 5.93641 15.8374 21.0369
rtibia 18.4644
rfoot -26.9912 -25.1718
rtoes -9.78459
lfemur -1.41309 -17.7122 -19.3698
ltibia 27.8495
lfoot -20.9289 4.70053
ltoes -15.5831
131
root 2.61158 17.6344 17.5128 -5.23058 14.2926 0.637263
lowerback 7.01213 2.57397 2.7048
upperback 0.523519 3.46724 -6.23653
thorax -2.83705 1.6853 -8.40996
lowerneck 2.25799 -5.35442 -0.288161
upperneck 15.4207 -7.62091 3.56006
head 4.92295 -3.57749 0.992649
rclavicle -2.58855e-014 4.77083e-014
rhumerus 59.1407 -4.2184 -63.9975
rradius 17.3659
rwrist 29.0355
rhand 7.77886 4.92269
rfingers 7.12502
rthumb 33.0167 -22.074
lclavicle -2.58855e-014 4.77083e-014
lhumerus -39.8561 46.4626 54.1091
lradius 15.0788
lwrist -47.6635
lhand -10.9829 -5.94347
lfingers 7.12502
lthumb 15.037 23.4905
rfemur 5.93456 15.9197 21.0666
rtibia 18.4657
rfoot -27.0129 -25.2156
rtoes -9.77931
lfemur -1.40112 -17.6783 -19.3498
ltibia 27.8336
lfoot -20.9388 4.68578
ltoes -15.5339
132
root 2.60972 17.6345 17.5108 -5.21579 14.2113 0.637396
lowerback 7.01329 2.57464 2.68371
upperback 0.518461 3.46628 -6.22835
thorax -2.84492 1.68457 -8.38899
lowerneck 2.1534 -5.31696 -0.249926
upperneck 16.1575 -7.60308 3.58361
head 4.64792 -3.5408 0.885818
rclavicle -4.71865e-014 2.8625e-014
rhumerus 58.7855 -3.5978 -62.6413
rradius 17.9244
rwrist 27.4144
rhand 7.38171 4.91617
rfingers 7.12502
rthumb 32.639 -22.1595
lclavicle -4.71865e-014 2.8625e-014
lhumerus -40.1869 46.7353 53.6883
lradius 15.0261
lwrist -48.0563
lhand -10.9684 -5.90488
lfingers 7.12502
lthumb 15.051 23.528
rfemur 5.89259 15.9948 21.0758
rtibia 18.4804
rfoot -26.9947 -25.2201
rtoes -9.7837
lfemur -1.40294 -17.6327 -19.3349
ltibia 27.8154
lfoot -20.9358 4.71638
ltoes -15.5337
133
root 2.60911 17.6349 17.5055 -5.2083 14.0909 0.638307
lowerback 7.06597 2.58732 2.68715
upperback 0.498408 3.48244 -6.22449
thorax -2.89278 1.6904 -8.39264
lowerneck 2.165 -5.27809 -0.207104
upperneck 16.4543 -7.55389 3.52872
head 4.7327 -3.51051 0.860635
rclavicle -4.34841e-017 -6.36111e-015
rhumerus 58.3763 -2.9744 -61.2665
rradius 18.5593
rwrist 25.7243
rhand 6.9281 4.8894
rfingers 7.12502
rthumb 32.2073 -22.2748
lclavicle -4.34841e-017 -6.36111e-015
lhumerus -40.5936 47.0902 53.1704
lradius 14.9808
lwrist -48.5579
lhand -10.9425 -5.86137
lfingers 7.12502
lthumb 15.0759 23.5697
rfemur 5.83581 16.0638 21.0625
rtibia 18.5002
rfoot -26.9772 -25.1632
rtoes -9.74543
lfemur -1.40366 -17.5551 -19.3258
ltibia 27.8018
lfoot -20.9405 4.75538
ltoes -15.5269
134
root 2.60882 17.6353 17.4991 -5.20174 13.9779 0.638696
lowerback 7.12847 2.59044 2.70224
upperback 0.492237 3.48718 -6.22255
thorax -2.93266 1.69099 -8.40436
lowerneck 2.10328 -5.23099 -0.215689
upperneck 16.8038 -7.49873 3.49544
head 4.84861 -3.47715 0.847697
rclavicle 1.6965e-014 1.43125e-014
rhumerus 57.9833 -2.39296 -59.955
rradius 19.2577
rwrist 24.1006
rhand 6.46234 4.88872
rfingers 7.12502
rthumb 31.7638 -22.3643
lclavicle 1.6965e-014 1.43125e-014
lhumerus -41.0127 47.564 52.5917
lradius 14.9039
lwrist -49.1698
lhand -10.9221 -5.84531
lfingers 7.12502
lthumb 15.0955 23.5842
rfemur 5.76891 16.0788 21.0354
rtibia 18.5198
rfoot -26.8894 -25.0916
rtoes -9.78613
lfemur -1.40945 -17.4958 -19.3166
ltibia 27.7901
lfoot -20.9307 4.79192
ltoes -15.5166
135
root 2.60741 17.6356 17.4951 -5.19108 13.9232 0.625717
lowerback 7.18031 2.57553 2.71659
upperback 0.475087 3.46729 -6.22402
thorax -2.98192 1.67858 -8.41721
lowerneck 2.08635 -5.18218 -0.207083
upperneck 17.1411 -7.44022 3.46366
head 4.95299 -3.44193 0.834244
rclavicle 1.42442e-014 1.74931e-014
rhumerus 57.5241 -1.86004 -58.7427
rradius 20.045
rwrist 22.5172
rhand 6.00033 4.90475
rfingers 7.12502
rthumb 31.3236 -22.4345
lclavicle 1.42442e-014 1.74931e-014
lhumerus -41.4622 47.9975 51.9876
lradius 14.8532
lwrist -49.7836
lhand -10.8689 -5.80286
lfingers 7.12502
lthumb 15.1468 23.6228
rfemur 5.72122 16.106 21.043
rtibia 18.533
rfoot -26.8582 -25.0749
rtoes -9.78585
lfemur -1.43395 -17.4451 -19.2844
ltibia 27.786
lfoot -20.9189 4.79037
ltoes -15.516
136
root 2.60606 17.6348 17.4936 -5.19052 13.9056 0.626328
lowerback 7.21564 2.55077 2.7159
upperback 0.478262 3.43358 -6.23697
thorax -3.00315 1.66095 -8.43056
lowerneck 2.04393 -5.13337 -0.208543
upperneck 17.4991 -7.38547 3.45147
head 5.06946 -3.40735 0.827392
rclavicle -1.70706e-014 6.36111e-015
rhumerus 57.0003 -1.39324 -57.6006
rradius 20.9592
rwrist 21.0251
rhand 5.49537 4.90697
rfingers 7.12502
rthumb 30.8424 -22.5244
lclavicle -1.70706e-014 6.36111e-015
lhumerus -41.8821 48.4463 51.3882
lradius 14.7999
lwrist -50.4146
lhand -10.8608 -5.7474
lfingers 7.12502
lthumb 15.1546 23.6777
rfemur 5.71944 16.191 21.0648
rtibia 18.5432
rfoot -26.9239 -25.1118
rtoes -9.71706
lfemur -1.43767 -17.4153 -19.2736
ltibia 27.7798
lfoot -20.9113 4.77631
ltoes -15.5162
137
root 2.60497 17.6347 17.4922 -5.17485 13.9039 0.626118
lowerback 7.22204 2.52336 2.70321
upperback 0.487455 3.39608 -6.23394
thorax -3.00421 1.64241 -8.41685
lowerneck 2.01776 -5.08301 -0.233935
upperneck 17.8388 -7.32585 3.43385
head 5.17836 -3.37279 0.823813
rclavicle -3.49302e-014 7.95139e-015
rhumerus 56.459 -1.01931 -56.616
rradius 21.9699
rwrist 19.6627
rhand 5.03476 4.90446
rfingers 7.12502
rthumb 30.4031 -22.6091
lclavicle -3.49302e-014 7.95139e-015
lhumerus -42.3396 48.9882 50.7501
lradius 14.7277
lwrist -51.152
lhand -10.8167 -5.69545
lfingers 7.12502
lthumb 15.1971 23.7264
rfemur 5.70152 16.2351 21.0761
rtibia 18.546
rfoot -26.9382 -25.1511
rtoes -9.79815
lfemur -1.46348 -17.395 -19.2575
ltibia 27.7766
lfoot -20.9006 4.75627
ltoes -15.5182
138
root 2.60444 17.6339 17.4912 -5.1701 13.8787 0.61617
lowerback 7.23913 2.50023 2.70181
upperback 0.492394 3.36502 -6.23023
thorax -3.01401 1.62655 -8.41042
lowerneck 1.98999 -5.03009 -0.259921
upperneck 18.1959 -7.26549 3.43083
head 5.2938 -3.33675 0.824798
rclavicle -7.36124e-015 0
rhumerus 55.8747 -0.747932 -55.8487
rradius 23.0538
rwrist 18.4865
rhand 4.5468 4.90542
rfingers 7.12502
rthumb 29.9376 -22.6931
lclavicle -7.36124e-015 0
lhumerus -42.6189 49.2574 50.3847
lradius 14.7036
lwrist -51.5618
lhand -10.8176 -5.59699
lfingers 7.12502
lthumb 15.1962 23.825
rfemur 5.69321 16.2919 21.099
rtibia 18.5485
rfoot -26.9562 -25.1779
rtoes -9.72357
lfemur -1.46363 -17.4171 -19.2474
ltibia 27.7702
lfoot -20.9169 4.78597
ltoes -15.52
139
root 2.60373 17.6337 17.4904 -5.16247 13.8736 0.615881
lowerback 7.24656 2.47827 2.68265
upperback 0.501363 3.33426 -6.22879
thorax -3.01501 1.61149 -8.39527
lowerneck 2.01404 -4.98072 -0.252929
upperneck 18.5187 -7.20428 3.40241
head 5.38805 -3.30108 0.814688
rclavicle -5.18083e-014 2.38542e-014
rhumerus 55.1986 -0.586251 -55.2547
rradius 24.2612
rwrist 17.4382
rhand 4.03186 4.90392
rfingers 7.12502
rthumb 29.4461 -22.7822
lclavicle -5.18083e-014 2.38542e-014
lhumerus -42.9144 49.5785 49.9805
lradius 14.682
lwrist -51.9984
lhand -10.7723 -5.52662
lfingers 7.12502
lthumb 15.2398 23.892
rfemur 5.68733 16.352 21.1135
rtibia 18.5553
rfoot -27.0251 -25.2037
rtoes -9.7219
lfemur -1.47316 -17.4012 -19.2371
ltibia 27.7611
lfoot -20.9077 4.77428
ltoes -15.5234
140
root 2.60359 17.6331 17.4899 -5.1468 13.872 0.615675
lowerback 7.2286 2.44868 2.65542
upperback 0.525365 3.29349 -6.21852
thorax -2.98868 1.59282 -8.36254
lowerneck 2.02465 -4.92894 -0.250725
upperneck 18.8161 -7.13744 3.36486
head 5.47656 -3.26401 0.802736
rclavicle -1.35577e-014 -6.99722e-014
rhumerus 54.5167 -0.531275 -54.921
rradius 25.5374
rwrist 16.5337
rhand 3.49459 4.91977
rfingers 7.12502
rthumb 28.9331 -22.8555
lclavicle -1.35577e-014 -6.99722e-014
lhumerus -42.9961 49.6818 49.88
lradius 14.6982
lwrist -52.138
lhand -10.7545 -5.41988
lfingers 7.12502
lthumb 15.257 23.9975
rfemur 5.67797 16.3801 21.1204
rtibia 18.5544
rfoot -27.046 -25.2226
rtoes -9.70544
lfemur -1.49388 -17.413 -19.229
ltibia 27.7545
lfoot -20.898 4.78666
ltoes -15.523
141
root 2.60291 17.6321 17.4891 -5.14989 13.8607 0.629005
lowerback 7.24661 2.42727 2.62076
upperback 0.545731 3.26234 -6.22674
thorax -2.984 1.57824 -8.34904
lowerneck 2.05026 -4.87835 -0.190896
upperneck 19.1292 -7.07292 3.32094
head 5.56569 -3.22443 0.77966
rclavicle 1.08369e-014 3.02153e-014
rhumerus 53.736 -0.57486 -54.7625
rradius 26.9156
rwrist 15.6265
rhand 2.89697 4.98629
rfingers 7.12502
rthumb 28.3621 -22.8854
lclavicle 1.08369e-014 3.02153e-014
lhumerus -42.9443 49.6131 49.9346
lradius 14.7348
lwrist -52.0853
lhand -10.7208 -5.35312
lfingers 7.12502
lthumb 15.2895 24.0617
rfemur 5.68761 16.4213 21.1205
rtibia 18.5554
rfoot -27.0659 -25.2439
rtoes -9.6885
lfemur -1.48517 -17.3997 -19.2418
ltibia 27.7484
lfoot -20.8939 4.78645
ltoes -15.5242
